<?xml version="1.0" encoding="utf-8"?>
<!-- Generator: Adobe Illustrator 28.0.0, SVG Export Plug-In . SVG Version: 6.00 Build 0)  -->
<svg version="1.1" id="Capa_1" xmlns="http://www.w3.org/2000/svg" xmlns:xlink="http://www.w3.org/1999/xlink" x="0px" y="0px"
	 viewBox="0 0 595.3 203.9" style="enable-background:new 0 0 595.3 203.9;" xml:space="preserve">
<style type="text/css">
	.st0{fill:#FE3B1F;}
	.st1{fill:#F8DF8D;}
</style>
<g id="Version_1_00000009564111384873633730000000867281058224313490_">
	<g>
		<g>
			<path class="st0" d="M359.8,100.9l7-6.4l-0.3,29.4l-2,1.2c-6.3,3.6-14.3,5.7-21.9,5.7c-23.5,0-42-19.2-42-43.6
				c0-24.9,18.9-44.4,43-44.4c7,0,14,1.9,20.8,5.6l2.1,1.1l0.3,29.1l-6.9-6.2c-5.4-4.8-10.7-7.2-16.3-7.2c-11.2,0-20,9.6-20,21.9
				c0,12,8.9,21.4,20.2,21.4C349.7,108.3,353.8,106.4,359.8,100.9z"/>
		</g>
		<g>
			<polygon class="st0" points="480.1,63.6 480.1,74.9 508.2,74.9 508.2,94.3 480.1,94.3 480.1,130.5 457.3,130.5 457.3,43.8 
				509.8,43.8 509.8,63.6 			"/>
		</g>
		<path class="st0" d="M425.5,43.7h-28l-26,86.8h27.7l2.1-11.8c6.8,0,13.5,0,20.3,0c0.1,0,0.1,0,0.2,0l2.1,11.8h27.7L425.5,43.7z
			 M405,99.9l6.5-28.5l6.5,28.5C415.8,99.9,407.2,99.9,405,99.9z"/>
		<g>
			<g>
				<polygon class="st0" points="572.5,111.1 572.5,130.3 516.5,130.3 516.5,43.9 572.2,43.9 572.2,63.2 539.1,63.2 539.1,74.6 
					571,74.6 571,93.6 539.1,93.6 539.1,111.1 				"/>
			</g>
			<polygon class="st0" points="544.8,14.6 556.3,23.8 540.9,39.5 532.7,33 			"/>
		</g>
	</g>
	<g>
		<g>
			<path class="st1" d="M81.8,99.9l7-6.4l-0.3,29.4l-2,1.2c-6.3,3.6-14.3,5.7-21.9,5.7c-23.5,0-42-19.2-42-43.6
				c0-24.9,18.9-44.4,43-44.4c7,0,14,1.9,20.8,5.6l2.1,1.1l0.3,29.1l-6.9-6.2C76.4,66.4,71.1,64,65.6,64c-11.2,0-20,9.6-20,21.9
				c0,12,8.9,21.4,20.2,21.4C71.7,107.3,75.8,105.4,81.8,99.9z"/>
		</g>
		<g>
			<polygon class="st1" points="202.1,62.6 202.1,73.9 230.2,73.9 230.2,93.3 202.1,93.3 202.1,129.5 179.3,129.5 179.3,42.8 
				231.8,42.8 231.8,62.6 			"/>
		</g>
		<path class="st1" d="M147.5,42.7h-28l-26,86.8h27.7l2.1-11.8c6.8,0,13.5,0,20.3,0c0.1,0,0.1,0,0.2,0l2.1,11.8h27.7L147.5,42.7z
			 M127,98.9l6.5-28.5l6.5,28.5C137.8,98.9,129.2,98.9,127,98.9z"/>
		<g>
			<g>
				<polygon class="st1" points="294.5,110.1 294.5,129.3 238.5,129.3 238.5,42.9 294.2,42.9 294.2,62.2 261.1,62.2 261.1,73.6 
					293,73.6 293,92.6 261.1,92.6 261.1,110.1 				"/>
			</g>
			<polygon class="st1" points="266.8,13.6 278.3,22.8 262.9,38.5 254.7,32 			"/>
		</g>
	</g>
</g>
</svg>
